<svg width="20" height="21" viewBox="0 0 20 21" fill="none" xmlns="http://www.w3.org/2000/svg">
<mask id="path-1-inside-1_15249_54" fill="white">
<path d="M19.8142 7.3915L19.8068 7.35467C19.8019 7.33011 19.7995 7.30801 19.7921 7.28346C19.7872 7.26873 19.7823 7.25645 19.7798 7.24172C19.7725 7.22208 19.7676 7.19998 19.7577 7.18034C19.7528 7.1656 19.7455 7.15333 19.7381 7.13859C19.7283 7.11895 19.7185 7.10176 19.7086 7.08212C19.7013 7.06984 19.6939 7.05511 19.6841 7.04283C19.6644 7.01337 19.6423 6.98391 19.6202 6.95444C19.608 6.93971 19.5932 6.92252 19.5785 6.90779C19.5687 6.89551 19.5564 6.88569 19.5441 6.87587C19.5294 6.86114 19.5122 6.84886 19.4975 6.83659C19.4852 6.82676 19.4729 6.81694 19.4582 6.80712C19.4533 6.80467 19.4484 6.79975 19.4435 6.7973L10.4691 0.823415C10.3307 0.730937 10.1679 0.68158 10.0014 0.68158C9.83487 0.68158 9.6721 0.730937 9.53364 0.823415L0.554395 6.80221C0.549484 6.80467 0.544573 6.80958 0.539662 6.81203C0.527385 6.82185 0.515109 6.83167 0.500377 6.8415C0.483189 6.85377 0.468457 6.8685 0.453725 6.88078C0.441448 6.8906 0.431627 6.90288 0.41935 6.9127C0.404618 6.92743 0.389886 6.94217 0.377609 6.95935C0.353055 6.98636 0.333412 7.01583 0.313769 7.04775C0.306403 7.06002 0.296582 7.0723 0.289216 7.08703C0.279394 7.10422 0.269573 7.12386 0.259752 7.14351C0.252386 7.15578 0.247475 7.17051 0.240109 7.18525C0.232743 7.20489 0.225377 7.22699 0.218011 7.24663C0.2131 7.26136 0.208189 7.27364 0.205734 7.28837C0.200823 7.31047 0.195912 7.33502 0.191002 7.35958L0.183635 7.39641C0.178725 7.43324 0.17627 7.47007 0.17627 7.5069V13.4857C0.17627 13.5225 0.178725 13.5594 0.183635 13.5962L0.191002 13.633L0.205734 13.7042C0.210644 13.719 0.2131 13.7312 0.218011 13.746C0.225377 13.7681 0.232743 13.7877 0.240109 13.8073C0.245019 13.8221 0.252386 13.8344 0.259752 13.8491C0.269573 13.8687 0.276939 13.8859 0.289216 13.9056C0.296582 13.9178 0.303948 13.9326 0.313769 13.9448C0.326046 13.962 0.335868 13.9792 0.3506 13.9964L0.380064 14.0332C0.392341 14.048 0.407073 14.0652 0.421805 14.0799C0.431627 14.0922 0.443904 14.102 0.45618 14.1118C0.470912 14.1265 0.4881 14.1388 0.502832 14.1511C0.515109 14.1609 0.527386 14.1707 0.542118 14.1806C0.547028 14.183 0.551939 14.1879 0.55685 14.1904L9.53364 20.1692C9.67114 20.2625 9.83564 20.3116 10.0026 20.3116C10.1647 20.3116 10.3292 20.2649 10.4716 20.1692L19.4484 14.1904C19.4533 14.1879 19.4582 14.183 19.4631 14.1806C19.4754 14.1707 19.4877 14.1609 19.5024 14.1511C19.5196 14.1388 19.5343 14.1241 19.549 14.1118C19.5613 14.102 19.5711 14.0897 19.5834 14.0799C19.5981 14.0652 19.6129 14.0504 19.6252 14.0332L19.6546 13.9964L19.6914 13.9448C19.6988 13.9326 19.7086 13.9203 19.716 13.9056C19.7258 13.8859 19.7356 13.8687 19.7455 13.8491C19.7528 13.8368 19.7577 13.8221 19.7651 13.8073C19.7725 13.7877 19.7798 13.7656 19.7872 13.746C19.7921 13.7337 19.797 13.719 19.7995 13.7042C19.8068 13.6821 19.8093 13.6576 19.8142 13.633L19.8216 13.5962C19.8265 13.5594 19.8289 13.5225 19.8289 13.4857V7.50199C19.8216 7.46516 19.8191 7.42833 19.8142 7.3915ZM10.8448 3.09953L17.4595 7.50444L14.5057 9.47855L10.8473 7.03301V3.09953H10.8448ZM9.15551 3.09953V7.03301L5.49703 9.47855L2.54323 7.50444L9.15551 3.09953ZM1.86556 9.08078L3.97716 10.4926L1.86556 11.9044V9.08078ZM9.15551 17.8832L2.54323 13.4783L5.49703 11.5042L9.15551 13.9498V17.8832ZM10.0002 12.4864L7.01444 10.4926L10.0002 8.49641L12.9859 10.4902L10.0002 12.4864ZM10.8448 17.8832V13.9498L14.5033 11.5042L17.4571 13.4783L10.8448 17.8832ZM18.1348 11.902L16.0231 10.4902L18.1348 9.07833V11.902Z"/>
</mask>
<path d="M19.8142 7.3915L19.8068 7.35467C19.8019 7.33011 19.7995 7.30801 19.7921 7.28346C19.7872 7.26873 19.7823 7.25645 19.7798 7.24172C19.7725 7.22208 19.7676 7.19998 19.7577 7.18034C19.7528 7.1656 19.7455 7.15333 19.7381 7.13859C19.7283 7.11895 19.7185 7.10176 19.7086 7.08212C19.7013 7.06984 19.6939 7.05511 19.6841 7.04283C19.6644 7.01337 19.6423 6.98391 19.6202 6.95444C19.608 6.93971 19.5932 6.92252 19.5785 6.90779C19.5687 6.89551 19.5564 6.88569 19.5441 6.87587C19.5294 6.86114 19.5122 6.84886 19.4975 6.83659C19.4852 6.82676 19.4729 6.81694 19.4582 6.80712C19.4533 6.80467 19.4484 6.79975 19.4435 6.7973L10.4691 0.823415C10.3307 0.730937 10.1679 0.68158 10.0014 0.68158C9.83487 0.68158 9.6721 0.730937 9.53364 0.823415L0.554395 6.80221C0.549484 6.80467 0.544573 6.80958 0.539662 6.81203C0.527385 6.82185 0.515109 6.83167 0.500377 6.8415C0.483189 6.85377 0.468457 6.8685 0.453725 6.88078C0.441448 6.8906 0.431627 6.90288 0.41935 6.9127C0.404618 6.92743 0.389886 6.94217 0.377609 6.95935C0.353055 6.98636 0.333412 7.01583 0.313769 7.04775C0.306403 7.06002 0.296582 7.0723 0.289216 7.08703C0.279394 7.10422 0.269573 7.12386 0.259752 7.14351C0.252386 7.15578 0.247475 7.17051 0.240109 7.18525C0.232743 7.20489 0.225377 7.22699 0.218011 7.24663C0.2131 7.26136 0.208189 7.27364 0.205734 7.28837C0.200823 7.31047 0.195912 7.33502 0.191002 7.35958L0.183635 7.39641C0.178725 7.43324 0.17627 7.47007 0.17627 7.5069V13.4857C0.17627 13.5225 0.178725 13.5594 0.183635 13.5962L0.191002 13.633L0.205734 13.7042C0.210644 13.719 0.2131 13.7312 0.218011 13.746C0.225377 13.7681 0.232743 13.7877 0.240109 13.8073C0.245019 13.8221 0.252386 13.8344 0.259752 13.8491C0.269573 13.8687 0.276939 13.8859 0.289216 13.9056C0.296582 13.9178 0.303948 13.9326 0.313769 13.9448C0.326046 13.962 0.335868 13.9792 0.3506 13.9964L0.380064 14.0332C0.392341 14.048 0.407073 14.0652 0.421805 14.0799C0.431627 14.0922 0.443904 14.102 0.45618 14.1118C0.470912 14.1265 0.4881 14.1388 0.502832 14.1511C0.515109 14.1609 0.527386 14.1707 0.542118 14.1806C0.547028 14.183 0.551939 14.1879 0.55685 14.1904L9.53364 20.1692C9.67114 20.2625 9.83564 20.3116 10.0026 20.3116C10.1647 20.3116 10.3292 20.2649 10.4716 20.1692L19.4484 14.1904C19.4533 14.1879 19.4582 14.183 19.4631 14.1806C19.4754 14.1707 19.4877 14.1609 19.5024 14.1511C19.5196 14.1388 19.5343 14.1241 19.549 14.1118C19.5613 14.102 19.5711 14.0897 19.5834 14.0799C19.5981 14.0652 19.6129 14.0504 19.6252 14.0332L19.6546 13.9964L19.6914 13.9448C19.6988 13.9326 19.7086 13.9203 19.716 13.9056C19.7258 13.8859 19.7356 13.8687 19.7455 13.8491C19.7528 13.8368 19.7577 13.8221 19.7651 13.8073C19.7725 13.7877 19.7798 13.7656 19.7872 13.746C19.7921 13.7337 19.797 13.719 19.7995 13.7042C19.8068 13.6821 19.8093 13.6576 19.8142 13.633L19.8216 13.5962C19.8265 13.5594 19.8289 13.5225 19.8289 13.4857V7.50199C19.8216 7.46516 19.8191 7.42833 19.8142 7.3915ZM10.8448 3.09953L17.4595 7.50444L14.5057 9.47855L10.8473 7.03301V3.09953H10.8448ZM9.15551 3.09953V7.03301L5.49703 9.47855L2.54323 7.50444L9.15551 3.09953ZM1.86556 9.08078L3.97716 10.4926L1.86556 11.9044V9.08078ZM9.15551 17.8832L2.54323 13.4783L5.49703 11.5042L9.15551 13.9498V17.8832ZM10.0002 12.4864L7.01444 10.4926L10.0002 8.49641L12.9859 10.4902L10.0002 12.4864ZM10.8448 17.8832V13.9498L14.5033 11.5042L17.4571 13.4783L10.8448 17.8832ZM18.1348 11.902L16.0231 10.4902L18.1348 9.07833V11.902Z" fill="#2188FF" stroke="#2188FF" stroke-width="0.00223214" mask="url(#path-1-inside-1_15249_54)"/>
</svg>
